<svg xmlns="http://www.w3.org/2000/svg" version="1.1" xmlns:xlink="http://www.w3.org/1999/xlink" xmlns:svgjs="http://svgjs.com/svgjs" width="512" height="512" x="0" y="0" viewBox="0 0 60 60" style="enable-background:new 0 0 512 512" xml:space="preserve" class=""><g><g xmlns="http://www.w3.org/2000/svg" id="Page-1" fill="none" fill-rule="evenodd"><g id="029---18-Plus"><circle id="Oval" cx="30" cy="30" fill="#f44335" r="29" data-original="#f44335" class=""></circle><path id="Path" d="m30 1c-.5033333 0-1.0033333.01266667-1.5.038 15.4192225.79012792 27.5158989 13.5225465 27.5158989 28.962s-12.0966764 28.1718721-27.5158989 28.962c.4973333.0253333.9973333.038 1.5.038 16.0162576-.0000002 28.9999996-12.9837424 28.9999996-29s-12.983742-28.99999976-28.9999996-29z" fill="#c81e1e" data-original="#c81e1e"></path><circle id="Oval" cx="30" cy="30" fill="#f5f5f5" r="24" data-original="#f5f5f5" class=""></circle><path id="Path" d="m30 6c-.5 0-1 .021-1.5.051 12.6273361.81636717 22.4516137 11.296302 22.4516137 23.95s-9.8242776 23.1336328-22.4516137 23.95c.5.03 1 .051 1.5.051 13.2553861-.0000003 24.0009995-10.7456139 24.0009995-24.001s-10.7456134-24.00099972-24.0009995-24.001z" fill="#cfd8dc" data-original="#cfd8dc"></path><path id="Path" d="m20 20.7v18.3c0 1.1045695-.8954305 2-2 2s-2-.8954305-2-2v-13.5l-1.751 1.4c-.8618303.6888861-2.118736.5497271-2.809-.311-.6895649-.8619897-.5503706-2.1196618.311-2.81l4.249-3.403 1.3-1.04c.5141683-.3813826 1.1995528-.4399228 1.7709511-.1512609.5713982.288662.930954.8750906.9290489 1.5152609z" fill="#f44335" data-original="#f44335" class=""></path><path id="Shape" d="m33.31 30c2.2086392-1.4608371 3.1984535-4.1968207 2.4357083-6.7326345-.7627451-2.5358139-3.0976653-4.2717536-5.7457083-4.2717536s-4.9829632 1.7359397-5.7457083 4.2717536c-.7627452 2.5358138.2270691 5.2717974 2.4357083 6.7326345-2.2086392 1.4608371-3.1984535 4.1968207-2.4357083 6.7326345.7627451 2.5358139 3.0976653 4.2717536 5.7457083 4.2717536s4.9829632-1.7359397 5.7457083-4.2717536c.7627452-2.5358138-.2270691-5.2717974-2.4357083-6.7326345zm-3.31 7c-1.1045695 0-2-.8954305-2-2s.8954305-2 2-2 2 .8954305 2 2c-.0032948 1.1032019-.8967981 1.9967052-2 2zm0-10c-1.1045695 0-2-.8954305-2-2s.8954305-2 2-2 2 .8954305 2 2c-.0032948 1.1032019-.8967981 1.9967052-2 2z" fill="#f44335" fill-rule="nonzero" data-original="#f44335" class=""></path><path id="Path" d="m47 28h-1v-1c0-1.1045695-.8954305-2-2-2s-2 .8954305-2 2v1h-1c-1.1045695 0-2 .8954305-2 2s.8954305 2 2 2h1v1c0 1.1045695.8954305 2 2 2s2-.8954305 2-2v-1h1c1.1045695 0 2-.8954305 2-2s-.8954305-2-2-2z" fill="#f44335" data-original="#f44335" class=""></path><g fill="#000" fill-rule="nonzero"><path id="Shape" d="m30 0c-16.5685425 0-30 13.4314575-30 30s13.4314575 30 30 30 30-13.4314575 30-30c-.018737-16.5607751-13.4392249-29.98126296-30-30zm0 58c-15.463973 0-28-12.536027-28-28s12.536027-28 28-28 28 12.536027 28 28c-.0176345 15.4566626-12.5433374 27.9823655-28 28z" fill="#000000" data-original="#000000" class=""></path><path id="Shape" d="m30 5c-13.8071187 0-25 11.1928813-25 25s11.1928813 25 25 25 25-11.1928813 25-25c-.0154309-13.800722-11.199278-24.9845691-25-25zm0 48c-12.7025492 0-23-10.2974508-23-23s10.2974508-23 23-23 23 10.2974508 23 23c-.0143284 12.6966095-10.3033905 22.9856716-23 23z" fill="#000000" data-original="#000000" class=""></path><path id="Shape" d="m19.518 18.291c-.9198403-.463983-2.0238854-.3618501-2.843.263l-5.55 4.446c-1.24547052 1.0483565-1.4275479 2.898715-.4103057 4.169725 1.0172423 1.27101 2.8625334 1.4987811 4.1583057.513275l.125-.1v11.417c0 1.6568542 1.3431458 3 3 3s3-1.3431458 3-3v-18.3c.0050485-1.0191446-.568606-1.9528836-1.48-2.409zm-.518 20.709c0 .5522847-.4477153 1-1 1s-1-.4477153-1-1v-13.5c.0001443-.3845434-.2202266-.7351047-.5668181-.9016819-.3465916-.1665772-.7579978-.1196578-1.0581819.1206819l-1.75 1.4c-.2760092.2469497-.6659018.3211298-1.0133126.1927908-.3474109-.128339-.5954409-.4381777-.6446184-.8052564s.1085517-.731277.409931-.9465344l5.519-4.418c.2103058-.1558438.4905461-.1796869.724157-.0616118.233611.1180752.3806058.3578577.379843.6196118z" fill="#000000" data-original="#000000" class=""></path><path id="Shape" d="m30 18c-2.8444278-.0004147-5.4062838 1.7204262-6.4815684 4.3537762-1.0752846 2.6333501-.4501658 5.6555391 1.5815684 7.6462238-2.0310091 1.9907871-2.6556634 5.012507-1.5804706 7.6454126 1.0751927 2.6329057 3.636489 4.3535873 6.4804706 4.3535873s5.4052779-1.7206816 6.4804706-4.3535873c1.0751928-2.6329056.4505385-5.6546255-1.5804706-7.6454126 2.0317342-1.9906847 2.656853-5.0128737 1.5815684-7.6462238-1.0752846-2.63335-3.6371406-4.3541909-6.4815684-4.3537762zm2.761 12.833c1.8392607 1.2182146 2.6627557 3.4978863 2.0266295 5.6102949-.6361262 2.1124085-2.5815183 3.5582635-4.7876295 3.5582635s-4.1515033-1.445855-4.7876295-3.5582635c-.6361262-2.1124086.1873688-4.3920803 2.0266295-5.6102949.2790222-.1853247.446727-.4980394.446727-.833s-.1677048-.6476753-.446727-.833c-1.8392607-1.2182146-2.6627557-3.4978863-2.0266295-5.6102949.6361262-2.1124085 2.5815183-3.5582635 4.7876295-3.5582635s4.1515033 1.445855 4.7876295 3.5582635c.6361262 2.1124086-.1873688 4.3920803-2.0266295 5.6102949-.2790222.1853247-.446727.4980394-.446727.833s.1677048.6476753.446727.833z" fill="#000000" data-original="#000000" class=""></path><path id="Shape" d="m30 22c-1.6568542 0-3 1.3431458-3 3s1.3431458 3 3 3 3-1.3431458 3-3-1.3431458-3-3-3zm0 4c-.5522847 0-1-.4477153-1-1s.4477153-1 1-1 1 .4477153 1 1-.4477153 1-1 1z" fill="#000000" data-original="#000000" class=""></path><path id="Shape" d="m30 32c-1.6568542 0-3 1.3431458-3 3s1.3431458 3 3 3 3-1.3431458 3-3-1.3431458-3-3-3zm0 4c-.5522847 0-1-.4477153-1-1s.4477153-1 1-1 1 .4477153 1 1-.4477153 1-1 1z" fill="#000000" data-original="#000000" class=""></path><path id="Shape" d="m44 24c-1.6568542 0-3 1.3431458-3 3-1.6568542 0-3 1.3431458-3 3s1.3431458 3 3 3c0 1.6568542 1.3431458 3 3 3s3-1.3431458 3-3c1.6568542 0 3-1.3431458 3-3s-1.3431458-3-3-3c0-1.6568542-1.3431458-3-3-3zm4 6c0 .5522847-.4477153 1-1 1h-1c-.5522847 0-1 .4477153-1 1v1c0 .5522847-.4477153 1-1 1s-1-.4477153-1-1v-1c0-.5522847-.4477153-1-1-1h-1c-.5522847 0-1-.4477153-1-1s.4477153-1 1-1h1c.5522847 0 1-.4477153 1-1v-1c0-.5522847.4477153-1 1-1s1 .4477153 1 1v1c0 .5522847.4477153 1 1 1h1c.5522847 0 1 .4477153 1 1z" fill="#000000" data-original="#000000" class=""></path></g></g></g></g></svg>